<?xml version="1.0" encoding="utf-8"?>
<!-- Generator: Adobe Illustrator 24.0.3, SVG Export Plug-In . SVG Version: 6.00 Build 0)  -->
<svg version="1.1" id="Capa_1" xmlns="http://www.w3.org/2000/svg" xmlns:xlink="http://www.w3.org/1999/xlink" x="0px" y="0px"
	 width="200px" height="50.242px" viewBox="0 0 200 50.242" style="enable-background:new 0 0 200 50.242;" xml:space="preserve">
<style type="text/css">
	.st0{fill:#330170;}
	.st1{fill:#FFFFFF;}
	.st2{fill:#F60052;}
</style>
<g>
	<rect class="st0" width="199.86" height="50.242"/>
	<path class="st1" d="M103.032,20.733c-4.581,0-8.171,3.616-8.171,8.233c0,4.617,3.629,8.234,8.264,8.234
		c3.594,0,6.747-1.971,7.843-4.905c0.032-0.086,0.02-0.182-0.033-0.257c-0.052-0.076-0.138-0.121-0.229-0.121h-4.071
		c-0.094,0-0.183,0.048-0.234,0.126c-0.578,0.88-1.741,1.365-3.276,1.365c-1.894,0-3.536-1.236-4.028-2.982h11.733
		c0.137,0,0.253-0.099,0.276-0.234c0.062-0.381,0.096-0.806,0.096-1.226C111.203,24.349,107.614,20.733,103.032,20.733
		 M103.032,24.461c1.618,0,3.125,0.974,3.73,2.36h-7.459C99.908,25.435,101.416,24.461,103.032,24.461"/>
	<path class="st1" d="M120.599,20.733c-1.623,0-2.804,0.414-3.726,1.332v-0.866c0-0.154-0.127-0.281-0.281-0.281h-3.418
		c-0.155,0-0.28,0.126-0.28,0.281v15.72c0,0.156,0.126,0.28,0.28,0.28h3.418c0.154,0,0.281-0.125,0.281-0.28v-8.574
		c0-2.137,1.372-3.758,3.416-3.758h0.311c0.155,0,0.28-0.126,0.28-0.281v-3.293C120.879,20.856,120.753,20.733,120.599,20.733"/>
	<path class="st1" d="M59.681,32.156l-3.04-1.608c-0.052-0.028-0.114-0.032-0.169-0.011c-0.055,0.02-0.1,0.062-0.123,0.116
		l-0.043,0.107c-0.293,0.734-1.071,2.684-3.368,2.684c-1.632,0-2.881-1.068-3.345-2.861c-0.06-0.198-0.2-0.754-0.2-1.578
		c0-0.52,0-2.097,1.053-3.32c0.631-0.743,1.395-1.088,2.402-1.088c1.243,0,1.911,0.508,2.355,0.952
		c0.222,0.222,0.625,0.702,0.841,1.43c0.017,0.059,0.059,0.107,0.115,0.132c0.056,0.025,0.119,0.025,0.175-0.001l3.188-1.489
		c0.102-0.048,0.149-0.168,0.103-0.273c-1.09-2.543-3.143-3.556-3.747-3.805c-0.872-0.362-1.858-0.552-2.851-0.552
		c-3.489,0-5.425,2.078-6.094,2.97c-1.081,1.404-1.652,3.178-1.652,5.134c0,1.265,0.316,5.535,4.385,7.402
		c1.428,0.635,2.702,0.703,3.184,0.703c2.378,0,4.601-1.09,5.948-2.915c0.38-0.516,0.693-1.11,0.981-1.867
		C59.815,32.317,59.774,32.206,59.681,32.156"/>
	<path class="st1" d="M156.104,20.809h-3.507c-0.152,0-0.277,0.123-0.277,0.276v0.954c-0.911-0.764-2.472-1.419-4.198-1.419
		c-4.713,0-8.133,3.486-8.133,8.288c0,4.804,3.421,8.29,8.133,8.29c1.726,0,3.287-0.654,4.198-1.418v0.953
		c0,0.154,0.125,0.278,0.277,0.278h3.507c0.151,0,0.276-0.124,0.276-0.278V21.085C156.38,20.933,156.256,20.809,156.104,20.809
		 M148.247,33.329c-2.385,0-4.324-1.982-4.324-4.419c0-2.435,1.94-4.418,4.324-4.418c2.355,0,4.199,1.941,4.199,4.418
		C152.446,31.388,150.602,33.329,148.247,33.329"/>
	<path class="st2" d="M182.311,31.642c-0.119-0.171-0.286-0.314-0.501-0.427c-0.216-0.114-0.446-0.17-0.694-0.17
		c-0.612,0-1.09,0.183-1.428,0.55c-0.339,0.365-0.509,0.844-0.509,1.435c0,0.593,0.17,1.071,0.509,1.437
		c0.339,0.366,0.816,0.548,1.428,0.548c0.269,0,0.501-0.058,0.694-0.177c0.194-0.119,0.36-0.259,0.501-0.419l1.598,1.677
		c-0.377,0.388-0.822,0.66-1.332,0.816c-0.512,0.155-0.998,0.233-1.461,0.233c-0.603,0-1.17-0.097-1.703-0.29
		c-0.532-0.194-0.994-0.471-1.387-0.832c-0.393-0.36-0.703-0.794-0.928-1.299c-0.226-0.505-0.339-1.07-0.339-1.695
		c0-0.624,0.113-1.188,0.339-1.694c0.225-0.506,0.536-0.938,0.928-1.3c0.393-0.36,0.855-0.637,1.387-0.83
		c0.532-0.194,1.1-0.291,1.703-0.291c0.463,0,0.949,0.079,1.461,0.234c0.51,0.156,0.955,0.428,1.332,0.814L182.311,31.642z"/>
	<path class="st2" d="M172.992,35.741c0-0.387,0.137-0.717,0.412-0.992c0.273-0.274,0.605-0.411,0.993-0.411
		c0.387,0,0.719,0.137,0.992,0.411c0.274,0.276,0.412,0.605,0.412,0.992c0,0.388-0.137,0.718-0.412,0.993
		c-0.273,0.275-0.604,0.412-0.992,0.412c-0.388,0-0.719-0.137-0.993-0.412C173.129,36.459,172.992,36.129,172.992,35.741"/>
	<rect x="185.01" y="24.945" class="st2" width="2.422" height="12.2"/>
	<path class="st1" d="M38.984,10.348H33.65v-0.196c0-4.193-3.411-7.604-7.605-7.604s-7.605,3.411-7.605,7.604v0.196h-5.333
		l-0.679,32.12h27.239L38.984,10.348z M20.03,10.151c0-3.317,2.698-6.016,6.015-6.016s6.015,2.699,6.015,6.016v0.196H20.03V10.151z
		 M18.248,16.018c0,0.314-0.253,0.568-0.567,0.568c-0.313,0-0.567-0.254-0.567-0.568c0-1.404,1.143-2.545,2.546-2.545
		c1.404,0,2.547,1.142,2.547,2.545c0,0.314-0.254,0.568-0.568,0.568c-0.313,0-0.567-0.254-0.567-0.568
		c0-0.778-0.633-1.411-1.412-1.411S18.248,15.24,18.248,16.018 M33.253,17.99c0,3.989-3.245,7.235-7.235,7.235
		c-3.989,0-7.235-3.246-7.235-7.235v-1.274c0-0.47,0.381-0.851,0.851-0.851c0.471,0,0.851,0.381,0.851,0.851v1.274
		c0,3.05,2.482,5.533,5.533,5.533c3.051,0,5.533-2.483,5.533-5.533v-1.274c0-0.47,0.381-0.851,0.851-0.851
		c0.47,0,0.851,0.381,0.851,0.851V17.99z M34.381,16.586c-0.313,0-0.567-0.254-0.567-0.568c0-0.778-0.633-1.411-1.412-1.411
		c-0.778,0-1.412,0.633-1.412,1.411c0,0.314-0.255,0.568-0.568,0.568c-0.313,0-0.567-0.254-0.567-0.568
		c0-1.404,1.142-2.545,2.546-2.545c1.404,0,2.547,1.142,2.547,2.545C34.949,16.332,34.695,16.586,34.381,16.586"/>
	<polygon class="st2" points="39.668,42.467 12.428,42.467 12.477,40.121 39.622,40.121 	"/>
	<path class="st1" d="M85.342,20.733c-1.645,0-3.198,0.527-4.288,1.429c0-0.062-0.025-0.119-0.062-0.167V10.618
		c0-0.169-0.148-0.3-0.316-0.279l-3.352,0.405c-0.142,0.017-0.248,0.137-0.248,0.28v15.763v10.131v0.001
		c0,0.155,0.125,0.28,0.28,0.28h0.001h3.352h0.065c0.154,0,0.279-0.125,0.279-0.28v-1.182c0.925,0.74,2.329,1.463,4.288,1.463
		c4.85,0,7.985-3.232,7.985-8.234C93.327,23.963,90.193,20.733,85.342,20.733 M85.187,33.346c-2.469,0-4.195-1.802-4.195-4.381
		c0-2.578,1.726-4.379,4.195-4.379c2.487,0,4.225,1.801,4.225,4.379C89.411,31.544,87.674,33.346,85.187,33.346"/>
	<path class="st1" d="M138.119,10.744l-3.352-0.405c-0.168-0.021-0.316,0.11-0.316,0.279v11.377
		c-0.037,0.048-0.062,0.104-0.062,0.167c-1.09-0.902-2.642-1.429-4.288-1.429c-4.85,0-7.985,3.23-7.985,8.232
		c0,5.002,3.135,8.234,7.985,8.234c1.958,0,3.363-0.723,4.288-1.463v1.182c0,0.155,0.126,0.28,0.279,0.28h0.065h3.352h0.001
		c0.155,0,0.28-0.125,0.28-0.28v-0.001V26.787V11.024C138.367,10.881,138.261,10.761,138.119,10.744 M130.257,33.346
		c-2.487,0-4.225-1.802-4.225-4.381c0-2.578,1.738-4.379,4.225-4.379c2.469,0,4.195,1.801,4.195,4.379
		C134.452,31.544,132.726,33.346,130.257,33.346"/>
	<path class="st1" d="M172.947,20.865c-0.051-0.079-0.14-0.128-0.235-0.128h-3.542c-0.112,0-0.214,0.067-0.258,0.171l-3.593,8.437
		l-3.596-8.437c-0.044-0.104-0.147-0.171-0.258-0.171h-3.541c-0.095,0-0.184,0.05-0.236,0.128c-0.05,0.079-0.06,0.179-0.02,0.265
		l5.66,12.747v8.273c0,0.191,0.144,0.339,0.309,0.317l3.42-0.429c0.142-0.018,0.249-0.154,0.249-0.316v-7.844l5.661-12.747
		C173.006,21.043,172.999,20.944,172.947,20.865"/>
	<path class="st1" d="M75.229,20.865c-0.051-0.079-0.14-0.128-0.235-0.128h-3.542c-0.112,0-0.214,0.067-0.258,0.171l-3.593,8.437
		l-3.597-8.437c-0.043-0.104-0.146-0.171-0.257-0.171h-3.541c-0.095,0-0.184,0.05-0.236,0.128c-0.05,0.079-0.06,0.179-0.02,0.265
		l5.66,12.747v8.273c0,0.191,0.144,0.339,0.309,0.317l3.42-0.429c0.142-0.018,0.249-0.154,0.249-0.316v-7.844L75.25,21.13
		C75.289,21.043,75.281,20.944,75.229,20.865"/>
</g>
</svg>
