<svg xmlns="http://www.w3.org/2000/svg" width="169.753" height="54.583" viewBox="0 0 169.753 54.583">
  <g id="Grupo_120" data-name="Grupo 120" transform="translate(-257.567 -526.287)">
    <g id="Grupo_119" data-name="Grupo 119" transform="translate(257.567 526.287)">
      <rect id="Rectángulo_242" data-name="Rectángulo 242" width="2.603" height="2.739" transform="translate(149.341 39.821)" fill="#3a52a3"/>
      <path id="Trazado_273" data-name="Trazado 273" d="M261.748,538.267h5.781v-3.575h-5.781v-4.8H269v-3.6H257.567v20.961h4.181Z" transform="translate(-257.567 -526.287)" fill="#3a52a3"/>
      <path id="Trazado_274" data-name="Trazado 274" d="M304.98,543.716H297.7V538h6.261v-3.547H297.7v-4.575h6.909v-3.589H293.495v20.961H304.98Z" transform="translate(-279.056 -526.287)" fill="#3a52a3"/>
      <path id="Trazado_275" data-name="Trazado 275" d="M342.706,541.5l-1.045-1.677a4.723,4.723,0,0,0-2-1.932,6.178,6.178,0,0,0,3.077-2.066,5.776,5.776,0,0,0,1.1-3.512,6.123,6.123,0,0,0-1.114-3.753,4.8,4.8,0,0,0-2.654-1.887,14,14,0,0,0-3.441-.385h-7.068v20.961h4.209v-8.616h.447a3.253,3.253,0,0,1,1.927.429,7.474,7.474,0,0,1,1.482,2.176l3.179,6.011h4.735Zm-4-6.982a5.184,5.184,0,0,1-3.117.7h-1.815v-5.28h2.162a5.116,5.116,0,0,1,2.762.591,2.16,2.16,0,0,1,.863,1.964A2.424,2.424,0,0,1,338.7,534.517Z" transform="translate(-300.628 -526.287)" fill="#3a52a3"/>
      <path id="Trazado_276" data-name="Trazado 276" d="M389.715,547.248l-2.837-5.749-1.045-1.677a4.721,4.721,0,0,0-2-1.932,6.177,6.177,0,0,0,3.077-2.066,5.778,5.778,0,0,0,1.1-3.512,6.123,6.123,0,0,0-1.114-3.753,4.8,4.8,0,0,0-2.653-1.887,14,14,0,0,0-3.441-.385h-7.068v20.961h4.209v-8.616h.447a3.252,3.252,0,0,1,1.927.429,7.481,7.481,0,0,1,1.483,2.176l3.179,6.011Zm-6.838-12.732a5.185,5.185,0,0,1-3.117.7h-1.815v-5.28h2.162a5.115,5.115,0,0,1,2.762.591,2.16,2.16,0,0,1,.864,1.964A2.424,2.424,0,0,1,382.877,534.517Z" transform="translate(-327.048 -526.287)" fill="#3a52a3"/>
      <path id="Trazado_277" data-name="Trazado 277" d="M429.253,543.716h-7.276V538h6.261v-3.547h-6.261v-4.575h6.909v-3.589H417.767v20.961h11.485Z" transform="translate(-353.384 -526.287)" fill="#3a52a3"/>
      <path id="Trazado_278" data-name="Trazado 278" d="M449.871,529.806h4.78v17.442h4.167V529.806h4.78v-3.519H449.871Z" transform="translate(-372.585 -526.287)" fill="#3a52a3"/>
      <path id="Trazado_279" data-name="Trazado 279" d="M501.108,543.716h-7.276V538h6.26v-3.547h-6.26v-4.575h6.909v-3.589H489.622v20.961h11.486Z" transform="translate(-396.361 -526.287)" fill="#3a52a3"/>
      <path id="Trazado_280" data-name="Trazado 280" d="M529.9,538.633h.448a3.251,3.251,0,0,1,1.926.429,7.463,7.463,0,0,1,1.483,2.176l3.179,6.011h4.735l-2.836-5.749-1.046-1.677a4.719,4.719,0,0,0-2-1.932,6.172,6.172,0,0,0,3.076-2.066,5.777,5.777,0,0,0,1.1-3.512,6.122,6.122,0,0,0-1.114-3.753,4.8,4.8,0,0,0-2.653-1.887,14,14,0,0,0-3.441-.385H525.69v20.961H529.9Zm0-8.7h2.162a5.115,5.115,0,0,1,2.762.591,2.16,2.16,0,0,1,.864,1.964,2.424,2.424,0,0,1-.856,2.029,5.182,5.182,0,0,1-3.117.7H529.9Z" transform="translate(-417.933 -526.287)" fill="#3a52a3"/>
      <rect id="Rectángulo_243" data-name="Rectángulo 243" width="4.252" height="20.961" transform="translate(125.495 0)" fill="#3a52a3"/>
      <path id="Trazado_281" data-name="Trazado 281" d="M590.651,526.287l-6.013,20.961h4.368l.969-4.09h5.749l.949,4.09h4.4l-5.934-20.961Zm.195,13.2,2.035-8.584,1.992,8.584Z" transform="translate(-453.191 -526.287)" fill="#3a52a3"/>
      <path id="Trazado_282" data-name="Trazado 282" d="M266.5,590.989h-4.958v-7.578h-3.979v19.5h3.979v-8.48H266.5v8.48h3.979v-19.5H266.5Z" transform="translate(-257.567 -560.453)" fill="#3a52a3"/>
      <rect id="Rectángulo_244" data-name="Rectángulo 244" width="4.018" height="19.502" transform="translate(16.45 22.958)" fill="#3a52a3"/>
      <path id="Trazado_283" data-name="Trazado 283" d="M322.748,595.357h2.862v2.931a5.022,5.022,0,0,1-1.294.752,4.01,4.01,0,0,1-1.447.269,3,3,0,0,1-1.792-.594,3.054,3.054,0,0,1-1.11-1.853,22.315,22.315,0,0,1-.308-4.474,18.834,18.834,0,0,1,.27-3.662,3.645,3.645,0,0,1,1-1.929,2.483,2.483,0,0,1,1.8-.691c1.382,0,2.228.971,2.587,2.967l.032.176,3.954-.842-.024-.162a6.766,6.766,0,0,0-2.019-4.348,6.572,6.572,0,0,0-4.314-1.3,7.805,7.805,0,0,0-3.143.59,6.512,6.512,0,0,0-2.469,2.018,7.467,7.467,0,0,0-1.457,3.343,26,26,0,0,0-.335,4.467c0,3.353.621,5.837,1.845,7.386a6.346,6.346,0,0,0,5.26,2.353,12.148,12.148,0,0,0,3.3-.444,11.341,11.341,0,0,0,3.582-1.956l.069-.052v-8.322h-6.841Z" transform="translate(-292.239 -559.966)" fill="#3a52a3"/>
      <path id="Trazado_284" data-name="Trazado 284" d="M367.077,595.824a8.857,8.857,0,0,1-.234,2.419,2.1,2.1,0,0,1-.766,1.1,2.492,2.492,0,0,1-1.479.392,2.345,2.345,0,0,1-1.555-.5,2.253,2.253,0,0,1-.764-1.32,11.891,11.891,0,0,1-.173-2.254V583.411h-3.979v11.92a12.3,12.3,0,0,0,.741,4.847,4.678,4.678,0,0,0,2.185,2.364,8.526,8.526,0,0,0,3.729.7,7.09,7.09,0,0,0,3.669-.861,4.724,4.724,0,0,0,2.046-2.473,11.234,11.234,0,0,0,.586-3.869V583.411h-4.005Z" transform="translate(-317.712 -560.453)" fill="#3a52a3"/>
      <path id="Trazado_285" data-name="Trazado 285" d="M402.972,594.341h5.8v-3.365h-5.8v-4.161h6.4v-3.4H398.993v19.5h10.721V599.56h-6.742Z" transform="translate(-342.155 -560.453)" fill="#3a52a3"/>
      <path id="Trazado_286" data-name="Trazado 286" d="M443.7,595.971a4.51,4.51,0,0,0-1.78-1.764,5.7,5.7,0,0,0,2.778-1.9,5.392,5.392,0,0,0,1.027-3.278,5.712,5.712,0,0,0-1.041-3.5,4.492,4.492,0,0,0-2.48-1.763,13.036,13.036,0,0,0-3.2-.358h-6.589v19.5h3.979v-7.983h.376a2.981,2.981,0,0,1,1.761.389,6.9,6.9,0,0,1,1.363,2l2.957,5.59h4.475l-2.658-5.387Zm-2.8-4.926a4.769,4.769,0,0,1-2.864.636h-1.643v-4.814h1.964a4.709,4.709,0,0,1,2.538.541,1.967,1.967,0,0,1,.782,1.788A2.21,2.21,0,0,1,440.9,591.045Z" transform="translate(-362.145 -560.453)" fill="#3a52a3"/>
      <rect id="Rectángulo_245" data-name="Rectángulo 245" width="4.018" height="19.502" transform="translate(86.708 22.958)" fill="#3a52a3"/>
      <path id="Trazado_287" data-name="Trazado 287" d="M495.988,583.411h-3.979v19.5h11.27v-3.391h-7.291Z" transform="translate(-397.789 -560.453)" fill="#3a52a3"/>
      <path id="Trazado_288" data-name="Trazado 288" d="M529.28,583.411H525.3v19.5h11.27v-3.391H529.28Z" transform="translate(-417.701 -560.453)" fill="#3a52a3"/>
      <path id="Trazado_289" data-name="Trazado 289" d="M559.185,583.411l-5.594,19.5h4.13l.9-3.789h5.265l.88,3.789h4.156l-5.522-19.5Zm.26,12.23,1.835-7.743,1.8,7.743Z" transform="translate(-434.621 -560.453)" fill="#3a52a3"/>
      <path id="Trazado_290" data-name="Trazado 290" d="M601.283,590.675a8.909,8.909,0,0,1-2.812-1.74,2.1,2.1,0,0,1-.5-1.3,1.556,1.556,0,0,1,.51-1.23,1.843,1.843,0,0,1,1.289-.465c1.223,0,1.919.907,2.127,2.773l.018.163,3.971-.228-.012-.175a7.111,7.111,0,0,0-1.526-4.35,5.452,5.452,0,0,0-4.265-1.522,7.132,7.132,0,0,0-3.107.612,5.4,5.4,0,0,0-2.1,1.809,5.072,5.072,0,0,0-.835,2.954,5.53,5.53,0,0,0,.876,3.019,8.34,8.34,0,0,0,3.656,2.653,11.343,11.343,0,0,1,3.322,1.926,2.32,2.32,0,0,1-.012,3.068,2.173,2.173,0,0,1-1.737.671,2.2,2.2,0,0,1-1.782-.756,5.1,5.1,0,0,1-.815-2.834l-.013-.175-4.01.357.005.164c.142,4.438,2.315,6.688,6.458,6.688a6.443,6.443,0,0,0,4.681-1.67,5.731,5.731,0,0,0,1.712-4.267,5.166,5.166,0,0,0-1.219-3.512A12.1,12.1,0,0,0,601.283,590.675Z" transform="translate(-458.51 -559.966)" fill="#3a52a3"/>
      <path id="Trazado_291" data-name="Trazado 291" d="M642.113,606.855c-.167,1.778-.733,2.679-1.682,2.679a1.349,1.349,0,0,1-.992-.426,2.457,2.457,0,0,1-.6-1.3,17.788,17.788,0,0,1-.17-2.943,14.142,14.142,0,0,1,.2-2.944,2.3,2.3,0,0,1,.59-1.128,1.333,1.333,0,0,1,.955-.361c.843,0,1.343.7,1.528,2.131l.017.13,2.777-.615-.022-.115a5.233,5.233,0,0,0-1.446-3.037,4.133,4.133,0,0,0-2.818-.926,4.1,4.1,0,0,0-4.212,3.161,15.515,15.515,0,0,0-.407,3.984,9.19,9.19,0,0,0,1.152,5.092,3.953,3.953,0,0,0,3.494,1.728c2.49,0,3.953-1.439,4.347-4.277l.014-.1-2.71-.883Z" transform="translate(-483.809 -569.18)" fill="#3a52a3"/>
      <path id="Trazado_292" data-name="Trazado 292" d="M663.278,609.726V598.564h-2.757v13.512h7.809v-2.35Z" transform="translate(-498.577 -569.516)" fill="#3a52a3"/>
    </g>
    <g id="Grupo_19" data-name="Grupo 19" transform="translate(257.567 571.037)">
      <path id="Trazado_143" data-name="Trazado 143" d="M257.567,646.987l1.031-.147a2.23,2.23,0,0,0,.377,1.116,1.049,1.049,0,0,0,1.481.094c.02-.018.04-.036.058-.055a1.13,1.13,0,0,0,.261-.741.922.922,0,0,0-.109-.463.9.9,0,0,0-.381-.332q-.186-.094-.848-.335a2.57,2.57,0,0,1-1.2-.76,2.473,2.473,0,0,1-.483-1.545,2.667,2.667,0,0,1,.227-1.1,1.7,1.7,0,0,1,.655-.778,1.914,1.914,0,0,1,1.032-.267,1.779,1.779,0,0,1,1.487.633,2.77,2.77,0,0,1,.522,1.692l-1.06.068a1.579,1.579,0,0,0-.291-.85.838.838,0,0,0-.67-.261.945.945,0,0,0-.723.278.665.665,0,0,0-.168.477.714.714,0,0,0,.158.466,2.333,2.333,0,0,0,.973.513,4.155,4.155,0,0,1,1.144.552,1.885,1.885,0,0,1,.58.783,3.156,3.156,0,0,1,.21,1.223,3.067,3.067,0,0,1-.251,1.236,1.811,1.811,0,0,1-.709.856,2.15,2.15,0,0,1-1.142.28,1.836,1.836,0,0,1-1.528-.673A3.589,3.589,0,0,1,257.567,646.987Z" transform="translate(-257.567 -640.05)" fill="#666"/>
      <path id="Trazado_144" data-name="Trazado 144" d="M274.336,649.675h-1.152l-.459-1.74h-2.1l-.435,1.74h-1.124L271.113,642h1.12Zm-1.95-3.037-.723-2.85-.709,2.85Z" transform="translate(-264.446 -640.244)" fill="#666"/>
      <path id="Trazado_145" data-name="Trazado 145" d="M283.6,649.675V642h1.031l2.148,5.128V642h.985v7.678H286.7l-2.116-5.007v5.007Z" transform="translate(-273.138 -640.244)" fill="#666"/>
      <path id="Trazado_146" data-name="Trazado 146" d="M299.822,646.667l1.027.477a3.815,3.815,0,0,1-.783,1.868,1.794,1.794,0,0,1-1.392.609,1.993,1.993,0,0,1-1.718-1.044,5.239,5.239,0,0,1-.672-2.857,5.529,5.529,0,0,1,.676-2.978,2.037,2.037,0,0,1,1.779-1.06,1.847,1.847,0,0,1,1.566.832,3.578,3.578,0,0,1,.537,1.415l-1.049.367a1.864,1.864,0,0,0-.388-.943.91.91,0,0,0-.717-.348,1.077,1.077,0,0,0-.946.609,4.067,4.067,0,0,0-.364,1.985,4.393,4.393,0,0,0,.357,2.074,1.061,1.061,0,0,0,.931.619.9.9,0,0,0,.727-.393A2.747,2.747,0,0,0,299.822,646.667Z" transform="translate(-280.719 -640.055)" fill="#666"/>
      <path id="Trazado_147" data-name="Trazado 147" d="M309.927,649.675V642h1.059v3.022h2.077V642h1.059v7.678h-1.059v-3.357h-2.077v3.357Z" transform="translate(-288.884 -640.244)" fill="#666"/>
      <path id="Trazado_148" data-name="Trazado 148" d="M323.091,649.675V642h3.891v1.3h-2.833V645h2.634v1.294h-2.634v2.087h2.931v1.3Z" transform="translate(-296.757 -640.244)" fill="#666"/>
      <path id="Trazado_149" data-name="Trazado 149" d="M334.125,649.685v-1.392l2.756-4.981h-2.444v-1.3h3.84v1.2l-2.871,5.18h2.986v1.286Z" transform="translate(-303.357 -640.255)" fill="#666"/>
      <path id="Trazado_150" data-name="Trazado 150" d="M351.705,649.675v-3.232L349.783,642h1.24l1.235,3.037,1.21-3.037h1.218l-1.923,4.46v3.218Z" transform="translate(-312.722 -640.244)" fill="#666"/>
      <path id="Trazado_151" data-name="Trazado 151" d="M371.115,646.667l1.027.477a3.815,3.815,0,0,1-.783,1.868,1.8,1.8,0,0,1-1.392.609,1.992,1.992,0,0,1-1.718-1.044,5.24,5.24,0,0,1-.674-2.857,5.533,5.533,0,0,1,.677-2.978,2.037,2.037,0,0,1,1.779-1.06,1.848,1.848,0,0,1,1.566.832,3.575,3.575,0,0,1,.536,1.415l-1.049.367a1.86,1.86,0,0,0-.388-.943.91.91,0,0,0-.717-.348,1.077,1.077,0,0,0-.946.609,4.067,4.067,0,0,0-.364,1.985,4.388,4.388,0,0,0,.358,2.074,1.06,1.06,0,0,0,.931.619.9.9,0,0,0,.726-.393A2.741,2.741,0,0,0,371.115,646.667Z" transform="translate(-323.359 -640.055)" fill="#666"/>
      <path id="Trazado_152" data-name="Trazado 152" d="M380.667,645.691a6.93,6.93,0,0,1,.24-1.969,4,4,0,0,1,.489-1.052,2.244,2.244,0,0,1,.679-.7,2.108,2.108,0,0,1,1.131-.3,2.131,2.131,0,0,1,1.856,1.052,6.488,6.488,0,0,1,.005,5.838,2.165,2.165,0,0,1-3.708.005A5.175,5.175,0,0,1,380.667,645.691Zm1.092-.052a3.84,3.84,0,0,0,.412,1.977,1.146,1.146,0,0,0,2.087.005,3.926,3.926,0,0,0,.406-2,3.866,3.866,0,0,0-.395-1.969,1.176,1.176,0,0,0-2.107.008A3.884,3.884,0,0,0,381.759,645.639Z" transform="translate(-331.19 -640.048)" fill="#666"/>
      <path id="Trazado_153" data-name="Trazado 153" d="M395.363,649.675V642h1.586l.952,5.237.941-5.237h1.589v7.678h-.985v-6.044l-1.044,6.044h-1.02l-1.038-6.044v6.044Z" transform="translate(-339.984 -640.244)" fill="#666"/>
      <path id="Trazado_154" data-name="Trazado 154" d="M410.594,649.664v-7.678h1.7a4.264,4.264,0,0,1,1.261.115,1.49,1.49,0,0,1,.755.752,3.209,3.209,0,0,1,.3,1.495,3.5,3.5,0,0,1-.174,1.189,2.083,2.083,0,0,1-.445.757,1.37,1.37,0,0,1-.55.364,4.19,4.19,0,0,1-1.1.11h-.69v2.9Zm1.06-6.38v2.175h.58a1.921,1.921,0,0,0,.838-.12.814.814,0,0,0,.331-.378,1.393,1.393,0,0,0,.12-.6,1.3,1.3,0,0,0-.168-.7.715.715,0,0,0-.426-.34,3.512,3.512,0,0,0-.762-.052Z" transform="translate(-349.094 -640.234)" fill="#666"/>
      <path id="Trazado_155" data-name="Trazado 155" d="M425.342,649.675h-1.153l-.458-1.74h-2.1l-.435,1.74h-1.124L422.118,642h1.12Zm-1.95-3.037-.723-2.85-.708,2.85Z" transform="translate(-354.764 -640.244)" fill="#666"/>
      <path id="Trazado_156" data-name="Trazado 156" d="M434.6,647.07v-7.678h1.031l2.148,5.128v-5.128h.985v7.678H437.7l-2.116-5.007v5.007Zm1.317-8.1h-.458v-.188a1.621,1.621,0,0,1,.182-.846.54.54,0,0,1,.469-.3.677.677,0,0,1,.233.039,2.488,2.488,0,0,1,.391.225.921.921,0,0,0,.445.186.23.23,0,0,0,.191-.1.713.713,0,0,0,.1-.348h.465a2.147,2.147,0,0,1-.181,1.011.523.523,0,0,1-.457.3.81.81,0,0,1-.24-.037q-.083-.031-.412-.215a1.184,1.184,0,0,0-.479-.183.2.2,0,0,0-.179.1.724.724,0,0,0-.071.35Z" transform="translate(-363.454 -637.636)" fill="#666"/>
      <path id="Trazado_157" data-name="Trazado 157" d="M447.669,649.675V642h1.059v7.678Z" transform="translate(-371.268 -640.244)" fill="#666"/>
      <path id="Trazado_158" data-name="Trazado 158" d="M456.754,649.675H455.6l-.459-1.74h-2.1l-.435,1.74h-1.124L453.53,642h1.12Zm-1.95-3.037-.723-2.85-.709,2.85Z" transform="translate(-373.552 -640.244)" fill="#666"/>
      <path id="Trazado_159" data-name="Trazado 159" d="M470.445,649.777v-7.616h1.06v6.322h2.634v1.294Z" transform="translate(-384.891 -640.342)" fill="#666"/>
      <path id="Trazado_160" data-name="Trazado 160" d="M480.792,649.68V643.3h-1.557v-1.3h4.17v1.3h-1.553v6.376Z" transform="translate(-390.148 -640.249)" fill="#666"/>
      <path id="Trazado_161" data-name="Trazado 161" d="M491.308,642h1.936a2.653,2.653,0,0,1,1,.146,1.8,1.8,0,0,1,.791.707,3.912,3.912,0,0,1,.5,1.244,8.128,8.128,0,0,1,.174,1.815,7.252,7.252,0,0,1-.161,1.634,3.894,3.894,0,0,1-.562,1.357,1.85,1.85,0,0,1-.745.609,2.261,2.261,0,0,1-.938.162h-2Zm1.059,1.3v5.086h.791a2.007,2.007,0,0,0,.64-.073.927.927,0,0,0,.428-.32,1.913,1.913,0,0,0,.277-.741,7.205,7.205,0,0,0,.108-1.407,6.609,6.609,0,0,0-.108-1.367,2.03,2.03,0,0,0-.3-.744.952.952,0,0,0-.491-.361,3.316,3.316,0,0,0-.87-.073Z" transform="translate(-397.369 -640.245)" fill="#666"/>
      <path id="Trazado_162" data-name="Trazado 162" d="M508.419,649.675h-1.153l-.459-1.74h-2.1l-.435,1.74h-1.124L505.2,642h1.12Zm-1.95-3.037-.723-2.85-.709,2.85Z" transform="translate(-404.453 -640.244)" fill="#666"/>
      <path id="Trazado_163" data-name="Trazado 163" d="M517.639,658.921v-1.472h1.006v1.472Z" transform="translate(-413.118 -649.486)" fill="#666"/>
    </g>
    <g id="Grupo_2" data-name="Grupo 2" transform="translate(368.007 571.823)">
      <rect id="Rectángulo_9" data-name="Rectángulo 9" width="37.438" height="9.047" transform="translate(0)" fill="#ff464b"/>
      <path id="Trazado_39" data-name="Trazado 39" d="M610.552,647.778a2.032,2.032,0,0,1-1.213,1.1,5.759,5.759,0,0,1-1.952.426,7.338,7.338,0,0,1-1.807-.113,18.082,18.082,0,0,1-1.812-.418l.89-1.78a4.251,4.251,0,0,0,2.155.653,1.751,1.751,0,0,0,.618-.14s.3-.3-.1-.426a2.045,2.045,0,0,0-.794-.122,4.886,4.886,0,0,1-1.8-.531,1.374,1.374,0,0,1-.667-1.184s-.086-1.333,1.667-1.908a5.845,5.845,0,0,1,2.406-.323,6.628,6.628,0,0,1,2.275.515l-.861,1.61a5.307,5.307,0,0,0-1.431-.462c-.06,0-.94-.062-.958.253,0,0-.131.262.324.3a9.864,9.864,0,0,1,1.673.289,2.632,2.632,0,0,1,1.309.775,1.455,1.455,0,0,1,.086,1.479" transform="translate(-575.071 -641.625)" fill="#fff"/>
      <path id="Trazado_40" data-name="Trazado 40" d="M592.436,649.462h-3.144v-4.12h-1.7V643.32h6.536v2.022h-1.7Z" transform="translate(-565.398 -641.821)" fill="#fff"/>
      <path id="Trazado_41" data-name="Trazado 41" d="M569.281,649.476l-.444-3.392-1.383,3.392h-1.839l-1.333-3.371-.444,3.371h-3.052l1.36-6.132h3.219l1.154,3.2,1.217-3.2h3.095l1.466,6.132Z" transform="translate(-549.365 -641.835)" fill="#fff"/>
    </g>
  </g>
</svg>
