<svg xmlns="http://www.w3.org/2000/svg" width="270" height="86.817" viewBox="0 0 270 86.817">
  <g id="Grupo_122" data-name="Grupo 122" transform="translate(-267.123 -798.896)">
    <g id="Grupo_121" data-name="Grupo 121" transform="translate(267.123 798.896)">
      <rect id="Rectángulo_246" data-name="Rectángulo 246" width="4.14" height="4.357" transform="translate(237.534 63.336)" fill="#fff"/>
      <path id="Trazado_293" data-name="Trazado 293" d="M273.773,817.949h9.2v-5.686h-9.2v-7.636H285.3V798.9H267.123v33.34h6.651Z" transform="translate(-267.123 -798.896)" fill="#fff"/>
      <path id="Trazado_294" data-name="Trazado 294" d="M321.318,826.617H309.746v-9.094H319.7v-5.641h-9.958V804.6h10.99V798.9H303.05v33.34h18.268Z" transform="translate(-280.084 -798.896)" fill="#fff"/>
      <path id="Trazado_295" data-name="Trazado 295" d="M360.023,823.092l-1.663-2.668a7.511,7.511,0,0,0-3.178-3.073,9.821,9.821,0,0,0,4.894-3.285,9.192,9.192,0,0,0,1.75-5.587,9.739,9.739,0,0,0-1.773-5.969,7.637,7.637,0,0,0-4.22-3,22.258,22.258,0,0,0-5.474-.613H339.118v33.34h6.7v-13.7h.711a5.172,5.172,0,0,1,3.064.682,11.891,11.891,0,0,1,2.358,3.461l5.056,9.56h7.531Zm-6.364-11.107c-.919.735-2.587,1.108-4.958,1.108h-2.887v-8.4h3.439a8.136,8.136,0,0,1,4.393.94,3.436,3.436,0,0,1,1.374,3.125A3.854,3.854,0,0,1,353.659,811.986Z" transform="translate(-293.096 -798.896)" fill="#fff"/>
      <path id="Trazado_296" data-name="Trazado 296" d="M408.707,832.236l-4.512-9.144-1.662-2.668a7.514,7.514,0,0,0-3.178-3.073,9.816,9.816,0,0,0,4.893-3.285,9.189,9.189,0,0,0,1.75-5.587,9.739,9.739,0,0,0-1.773-5.969,7.639,7.639,0,0,0-4.221-3,22.256,22.256,0,0,0-5.473-.613H383.291v33.34h6.7v-13.7h.711a5.174,5.174,0,0,1,3.064.682,11.88,11.88,0,0,1,2.357,3.461l5.056,9.56Zm-10.876-20.25c-.919.735-2.586,1.108-4.958,1.108h-2.887v-8.4h3.439a8.138,8.138,0,0,1,4.393.94,3.437,3.437,0,0,1,1.373,3.125A3.854,3.854,0,0,1,397.832,811.986Z" transform="translate(-309.033 -798.896)" fill="#fff"/>
      <path id="Trazado_297" data-name="Trazado 297" d="M445.591,826.617H434.018v-9.094h9.958v-5.641h-9.958V804.6h10.99V798.9H427.323v33.34h18.268Z" transform="translate(-324.918 -798.896)" fill="#fff"/>
      <path id="Trazado_298" data-name="Trazado 298" d="M459.426,804.493h7.6v27.743h6.628V804.493h7.6v-5.6H459.426Z" transform="translate(-336.5 -798.896)" fill="#fff"/>
      <path id="Trazado_299" data-name="Trazado 299" d="M517.446,826.617H505.873v-9.094h9.958v-5.641h-9.958V804.6h10.989V798.9H499.178v33.34h18.268Z" transform="translate(-350.841 -798.896)" fill="#fff"/>
      <path id="Trazado_300" data-name="Trazado 300" d="M541.941,818.532h.711a5.174,5.174,0,0,1,3.064.682,11.863,11.863,0,0,1,2.357,3.461l5.057,9.56h7.531l-4.51-9.144-1.663-2.668a7.511,7.511,0,0,0-3.178-3.073,9.818,9.818,0,0,0,4.894-3.285,9.192,9.192,0,0,0,1.75-5.587,9.734,9.734,0,0,0-1.773-5.969,7.634,7.634,0,0,0-4.22-3,22.265,22.265,0,0,0-5.474-.613H535.245v33.34h6.7Zm0-13.838h3.439a8.138,8.138,0,0,1,4.393.94,3.437,3.437,0,0,1,1.373,3.125,3.854,3.854,0,0,1-1.36,3.226c-.919.735-2.586,1.108-4.958,1.108h-2.887Z" transform="translate(-363.853 -798.896)" fill="#fff"/>
      <rect id="Rectángulo_247" data-name="Rectángulo 247" width="6.763" height="33.34" transform="translate(199.606 0)" fill="#fff"/>
      <path id="Trazado_301" data-name="Trazado 301" d="M603.757,798.9l-9.563,33.34h6.947l1.541-6.5h9.144l1.51,6.5h6.991l-9.439-33.34Zm.311,20.992,3.236-13.653,3.167,13.653Z" transform="translate(-385.12 -798.896)" fill="#fff"/>
      <path id="Trazado_302" data-name="Trazado 302" d="M281.338,868.073h-7.886V856.019h-6.329v31.018h6.329V873.55h7.886v13.487h6.329V856.019h-6.329Z" transform="translate(-267.123 -819.505)" fill="#fff"/>
      <rect id="Rectángulo_248" data-name="Rectángulo 248" width="6.391" height="31.018" transform="translate(26.165 36.515)" fill="#fff"/>
      <path id="Trazado_303" data-name="Trazado 303" d="M336.563,875.5h4.551v4.663a7.955,7.955,0,0,1-2.058,1.195,6.378,6.378,0,0,1-2.3.429,4.771,4.771,0,0,1-2.849-.945,4.859,4.859,0,0,1-1.767-2.948,35.509,35.509,0,0,1-.489-7.117,29.906,29.906,0,0,1,.429-5.824,5.792,5.792,0,0,1,1.586-3.068,3.95,3.95,0,0,1,2.862-1.1c2.2,0,3.544,1.544,4.115,4.719l.05.28,6.289-1.339-.038-.257c-.479-3.213-1.56-5.54-3.211-6.915a10.455,10.455,0,0,0-6.862-2.07,12.43,12.43,0,0,0-5,.938,10.371,10.371,0,0,0-3.927,3.21,11.876,11.876,0,0,0-2.317,5.317,41.338,41.338,0,0,0-.534,7.1c0,5.332.988,9.284,2.935,11.747a10.094,10.094,0,0,0,8.366,3.741,19.318,19.318,0,0,0,5.244-.707,18.024,18.024,0,0,0,5.7-3.11l.11-.082V870.128h-10.88Z" transform="translate(-288.036 -819.211)" fill="#fff"/>
      <path id="Trazado_304" data-name="Trazado 304" d="M381.917,875.763a14.089,14.089,0,0,1-.371,3.847,3.339,3.339,0,0,1-1.218,1.743,3.959,3.959,0,0,1-2.353.623,3.727,3.727,0,0,1-2.473-.8,3.581,3.581,0,0,1-1.216-2.1,18.924,18.924,0,0,1-.275-3.586V856.019h-6.33v18.959a19.583,19.583,0,0,0,1.178,7.71,7.438,7.438,0,0,0,3.476,3.76,13.559,13.559,0,0,0,5.931,1.109,11.278,11.278,0,0,0,5.836-1.369,7.516,7.516,0,0,0,3.255-3.934,17.866,17.866,0,0,0,.931-6.154V856.019h-6.371Z" transform="translate(-303.401 -819.504)" fill="#fff"/>
      <path id="Trazado_305" data-name="Trazado 305" d="M414.878,873.4h9.227v-5.352h-9.227v-6.618h10.183v-5.414H408.549v31.018H425.6v-5.332H414.878Z" transform="translate(-318.145 -819.505)" fill="#fff"/>
      <path id="Trazado_306" data-name="Trazado 306" d="M459.917,876a7.176,7.176,0,0,0-2.831-2.806,9.066,9.066,0,0,0,4.418-3.015,8.578,8.578,0,0,0,1.634-5.214,9.088,9.088,0,0,0-1.655-5.569,7.144,7.144,0,0,0-3.945-2.8,20.707,20.707,0,0,0-5.087-.569h-10.48v31.019H448.3v-12.7h.6a4.741,4.741,0,0,1,2.8.618,10.985,10.985,0,0,1,2.168,3.188l4.7,8.892h7.117l-4.228-8.569Zm-4.449-7.834c-.839.672-2.372,1.012-4.555,1.012H448.3v-7.658h3.125a7.486,7.486,0,0,1,4.036.861,3.128,3.128,0,0,1,1.245,2.843A3.512,3.512,0,0,1,455.468,868.162Z" transform="translate(-330.203 -819.504)" fill="#fff"/>
      <rect id="Rectángulo_249" data-name="Rectángulo 249" width="6.391" height="31.018" transform="translate(137.912 36.515)" fill="#fff"/>
      <path id="Trazado_307" data-name="Trazado 307" d="M507.894,856.019h-6.329v31.018H519.49v-5.394h-11.6Z" transform="translate(-351.702 -819.505)" fill="#fff"/>
      <path id="Trazado_308" data-name="Trazado 308" d="M541.186,856.019h-6.329v31.018h17.925v-5.394h-11.6Z" transform="translate(-363.713 -819.505)" fill="#fff"/>
      <path id="Trazado_309" data-name="Trazado 309" d="M572.044,856.019l-8.9,31.019h6.569l1.429-6.027h8.374l1.4,6.027h6.609l-8.782-31.019Zm.414,19.452,2.919-12.316,2.858,12.316Z" transform="translate(-373.92 -819.504)" fill="#fff"/>
      <path id="Trazado_310" data-name="Trazado 310" d="M615.417,868.054c-2.441-1.151-3.946-2.082-4.473-2.767a3.331,3.331,0,0,1-.793-2.074,2.476,2.476,0,0,1,.813-1.956,2.931,2.931,0,0,1,2.05-.74c1.946,0,3.052,1.442,3.383,4.409l.029.259,6.316-.363-.018-.277a11.312,11.312,0,0,0-2.428-6.92c-1.426-1.606-3.709-2.42-6.783-2.42a11.334,11.334,0,0,0-4.941.973,8.589,8.589,0,0,0-3.338,2.876,8.065,8.065,0,0,0-1.328,4.7,8.8,8.8,0,0,0,1.393,4.8c.925,1.466,2.88,2.885,5.814,4.22,2.873,1.293,4.652,2.324,5.285,3.064a3.691,3.691,0,0,1-.019,4.881,3.455,3.455,0,0,1-2.762,1.068,3.5,3.5,0,0,1-2.836-1.2c-.7-.816-1.135-2.332-1.3-4.507l-.021-.279-6.378.568.008.26c.226,7.058,3.682,10.637,10.272,10.637a10.247,10.247,0,0,0,7.446-2.656,9.117,9.117,0,0,0,2.722-6.786,8.218,8.218,0,0,0-1.94-5.586A19.258,19.258,0,0,0,615.417,868.054Z" transform="translate(-388.328 -819.211)" fill="#fff"/>
      <path id="Trazado_311" data-name="Trazado 311" d="M655.379,884.692c-.267,2.829-1.167,4.262-2.676,4.262a2.143,2.143,0,0,1-1.578-.679,3.893,3.893,0,0,1-.956-2.067,28.221,28.221,0,0,1-.27-4.68,22.547,22.547,0,0,1,.318-4.682,3.662,3.662,0,0,1,.94-1.794,2.12,2.12,0,0,1,1.518-.575c1.341,0,2.136,1.108,2.432,3.39l.027.207,4.416-.978-.035-.182a8.323,8.323,0,0,0-2.3-4.831,6.57,6.57,0,0,0-4.482-1.473,6.524,6.524,0,0,0-6.7,5.029,24.64,24.64,0,0,0-.648,6.336c0,3.575.617,6.3,1.833,8.1a6.288,6.288,0,0,0,5.558,2.748c3.961,0,6.287-2.288,6.914-6.8l.022-.158-4.31-1.406Z" transform="translate(-403.589 -824.768)" fill="#fff"/>
      <path id="Trazado_312" data-name="Trazado 312" d="M674.462,888.927V871.173h-4.385v21.491H682.5v-3.737Z" transform="translate(-412.497 -824.971)" fill="#fff"/>
    </g>
    <g id="Grupo_19" data-name="Grupo 19" transform="translate(267.123 870.073)">
      <path id="Trazado_143" data-name="Trazado 143" d="M267.123,922.734l1.639-.233a3.548,3.548,0,0,0,.6,1.775,1.669,1.669,0,0,0,2.355.15c.032-.028.063-.057.093-.088a1.8,1.8,0,0,0,.415-1.179,1.462,1.462,0,0,0-.175-.738,1.427,1.427,0,0,0-.606-.528q-.3-.15-1.349-.533a4.083,4.083,0,0,1-1.9-1.208,3.933,3.933,0,0,1-.768-2.457,4.242,4.242,0,0,1,.361-1.746,2.713,2.713,0,0,1,1.042-1.237,3.043,3.043,0,0,1,1.642-.424,2.828,2.828,0,0,1,2.366,1.007,4.408,4.408,0,0,1,.83,2.691l-1.685.108a2.52,2.52,0,0,0-.463-1.353,1.333,1.333,0,0,0-1.067-.415,1.5,1.5,0,0,0-1.149.441,1.061,1.061,0,0,0-.267.759,1.136,1.136,0,0,0,.251.742,3.718,3.718,0,0,0,1.548.816,6.611,6.611,0,0,1,1.819.878,3.011,3.011,0,0,1,.923,1.245,5,5,0,0,1,.333,1.945,4.879,4.879,0,0,1-.4,1.966,2.888,2.888,0,0,1-1.128,1.362,3.428,3.428,0,0,1-1.817.446,2.918,2.918,0,0,1-2.431-1.071A5.7,5.7,0,0,1,267.123,922.734Z" transform="translate(-267.123 -911.701)" fill="#fff"/>
      <path id="Trazado_144" data-name="Trazado 144" d="M287,926.818h-1.833l-.729-2.767H281.1l-.692,2.767h-1.788l3.252-12.213h1.782Zm-3.1-4.831-1.149-4.533-1.128,4.533Z" transform="translate(-271.272 -911.817)" fill="#fff"/>
      <path id="Trazado_145" data-name="Trazado 145" d="M293.156,926.818V914.6h1.64l3.416,8.157V914.6h1.566v12.213h-1.691l-3.365-7.964v7.964Z" transform="translate(-276.515 -911.817)" fill="#fff"/>
      <path id="Trazado_146" data-name="Trazado 146" d="M311.472,922.22l1.634.758a6.081,6.081,0,0,1-1.245,2.97,2.852,2.852,0,0,1-2.214.969,3.168,3.168,0,0,1-2.733-1.66,8.333,8.333,0,0,1-1.069-4.545,8.793,8.793,0,0,1,1.075-4.736,3.24,3.24,0,0,1,2.829-1.687,2.938,2.938,0,0,1,2.49,1.325,5.683,5.683,0,0,1,.853,2.249l-1.668.584a2.96,2.96,0,0,0-.617-1.5,1.449,1.449,0,0,0-1.142-.553,1.713,1.713,0,0,0-1.505.969,6.482,6.482,0,0,0-.579,3.157,6.989,6.989,0,0,0,.569,3.3,1.687,1.687,0,0,0,1.48.984,1.426,1.426,0,0,0,1.155-.625A4.374,4.374,0,0,0,311.472,922.22Z" transform="translate(-281.088 -911.703)" fill="#fff"/>
      <path id="Trazado_147" data-name="Trazado 147" d="M319.482,926.818V914.6h1.686v4.807h3.3V914.6h1.685v12.213H324.47v-5.341h-3.3v5.341Z" transform="translate(-286.013 -911.817)" fill="#fff"/>
      <path id="Trazado_148" data-name="Trazado 148" d="M332.646,926.818V914.6h6.189v2.066h-4.507v2.708h4.189v2.057h-4.189v3.321h4.663v2.062Z" transform="translate(-290.762 -911.817)" fill="#fff"/>
      <path id="Trazado_149" data-name="Trazado 149" d="M343.681,926.825v-2.214l4.383-7.923h-3.888v-2.065h6.108v1.916l-4.565,8.239h4.748v2.046Z" transform="translate(-294.743 -911.824)" fill="#fff"/>
      <path id="Trazado_150" data-name="Trazado 150" d="M362.4,926.818v-5.14l-3.058-7.073h1.973l1.964,4.832L365.2,914.6h1.937l-3.059,7.094v5.119Z" transform="translate(-300.391 -911.817)" fill="#fff"/>
      <path id="Trazado_151" data-name="Trazado 151" d="M382.766,922.22l1.634.758a6.075,6.075,0,0,1-1.245,2.97,2.853,2.853,0,0,1-2.214.969,3.168,3.168,0,0,1-2.733-1.66,8.329,8.329,0,0,1-1.071-4.545,8.793,8.793,0,0,1,1.076-4.736,3.24,3.24,0,0,1,2.829-1.687,2.937,2.937,0,0,1,2.49,1.325,5.684,5.684,0,0,1,.854,2.249l-1.669.584a2.96,2.96,0,0,0-.617-1.5,1.449,1.449,0,0,0-1.142-.553,1.713,1.713,0,0,0-1.505.969,6.467,6.467,0,0,0-.578,3.157,6.981,6.981,0,0,0,.568,3.3,1.688,1.688,0,0,0,1.48.984,1.426,1.426,0,0,0,1.155-.625A4.365,4.365,0,0,0,382.766,922.22Z" transform="translate(-306.808 -911.703)" fill="#fff"/>
      <path id="Trazado_152" data-name="Trazado 152" d="M390.226,920.675a11,11,0,0,1,.382-3.132,6.366,6.366,0,0,1,.777-1.674,3.568,3.568,0,0,1,1.079-1.107,3.345,3.345,0,0,1,1.8-.483,3.388,3.388,0,0,1,2.953,1.674,10.324,10.324,0,0,1,.008,9.285,3.444,3.444,0,0,1-5.9.008A8.229,8.229,0,0,1,390.226,920.675Zm1.737-.083a6.107,6.107,0,0,0,.654,3.145,1.822,1.822,0,0,0,3.321.008,6.259,6.259,0,0,0,.646-3.182,6.16,6.16,0,0,0-.628-3.133,1.87,1.87,0,0,0-3.351.013A6.17,6.17,0,0,0,391.963,920.592Z" transform="translate(-311.531 -911.699)" fill="#fff"/>
      <path id="Trazado_153" data-name="Trazado 153" d="M404.919,926.818V914.6h2.522l1.514,8.33,1.5-8.33h2.528v12.213h-1.566V917.2l-1.661,9.613H408.13l-1.652-9.613v9.613Z" transform="translate(-316.836 -911.817)" fill="#fff"/>
      <path id="Trazado_154" data-name="Trazado 154" d="M420.15,926.812V914.6h2.7a6.78,6.78,0,0,1,2,.183,2.375,2.375,0,0,1,1.2,1.2,5.1,5.1,0,0,1,.484,2.379,5.556,5.556,0,0,1-.277,1.891,3.312,3.312,0,0,1-.708,1.2,2.171,2.171,0,0,1-.875.578,6.605,6.605,0,0,1-1.747.176h-1.1v4.608Zm1.685-10.147v3.459h.923a3.06,3.06,0,0,0,1.332-.191,1.294,1.294,0,0,0,.527-.6,2.234,2.234,0,0,0,.191-.949,2.071,2.071,0,0,0-.267-1.106,1.144,1.144,0,0,0-.678-.542,5.622,5.622,0,0,0-1.212-.083Z" transform="translate(-322.331 -911.811)" fill="#fff"/>
      <path id="Trazado_155" data-name="Trazado 155" d="M438.008,926.818h-1.833l-.729-2.767H432.11l-.692,2.767H429.63l3.25-12.213h1.782Zm-3.1-4.831-1.15-4.533-1.126,4.533Z" transform="translate(-325.751 -911.817)" fill="#fff"/>
      <path id="Trazado_156" data-name="Trazado 156" d="M444.16,925.25V913.037h1.64l3.416,8.156v-8.156h1.566V925.25h-1.691l-3.365-7.964v7.964Zm2.095-12.888h-.729v-.3a2.588,2.588,0,0,1,.291-1.345.858.858,0,0,1,.745-.47,1.051,1.051,0,0,1,.371.062,3.914,3.914,0,0,1,.623.359,1.462,1.462,0,0,0,.708.3.366.366,0,0,0,.3-.166,1.147,1.147,0,0,0,.157-.554h.74a3.4,3.4,0,0,1-.288,1.608.83.83,0,0,1-.726.483,1.282,1.282,0,0,1-.382-.058,7.267,7.267,0,0,1-.655-.342,1.876,1.876,0,0,0-.763-.292.321.321,0,0,0-.285.164,1.148,1.148,0,0,0-.112.557Z" transform="translate(-330.993 -910.244)" fill="#fff"/>
      <path id="Trazado_157" data-name="Trazado 157" d="M457.224,926.818V914.6h1.686v12.213Z" transform="translate(-335.706 -911.817)" fill="#fff"/>
      <path id="Trazado_158" data-name="Trazado 158" d="M469.42,926.818h-1.833l-.729-2.767h-3.336l-.692,2.767h-1.788l3.25-12.213h1.782Zm-3.1-4.831-1.15-4.533-1.128,4.533Z" transform="translate(-337.083 -911.817)" fill="#fff"/>
      <path id="Trazado_159" data-name="Trazado 159" d="M480,926.883V914.77h1.685v10.056h4.19v2.058Z" transform="translate(-343.923 -911.877)" fill="#fff"/>
      <path id="Trazado_160" data-name="Trazado 160" d="M491.267,926.821V916.68h-2.476v-2.066h6.633v2.066h-2.471v10.141Z" transform="translate(-347.094 -911.821)" fill="#fff"/>
      <path id="Trazado_161" data-name="Trazado 161" d="M500.864,914.611h3.08a4.208,4.208,0,0,1,1.588.233,2.868,2.868,0,0,1,1.257,1.124,6.22,6.22,0,0,1,.8,1.978,12.969,12.969,0,0,1,.277,2.888,11.5,11.5,0,0,1-.256,2.6,6.181,6.181,0,0,1-.894,2.158,2.933,2.933,0,0,1-1.185.968,3.594,3.594,0,0,1-1.491.258h-3.174Zm1.685,2.066v8.089h1.257a3.168,3.168,0,0,0,1.019-.116,1.466,1.466,0,0,0,.68-.508,3.054,3.054,0,0,0,.442-1.179,11.511,11.511,0,0,0,.171-2.237,10.513,10.513,0,0,0-.171-2.175,3.231,3.231,0,0,0-.477-1.183,1.509,1.509,0,0,0-.781-.574,5.238,5.238,0,0,0-1.383-.116Z" transform="translate(-351.45 -911.818)" fill="#fff"/>
      <path id="Trazado_162" data-name="Trazado 162" d="M521.085,926.818h-1.833l-.729-2.767h-3.336l-.692,2.767h-1.787l3.25-12.213h1.782Zm-3.1-4.831-1.15-4.533-1.128,4.533Z" transform="translate(-355.723 -911.817)" fill="#fff"/>
      <path id="Trazado_163" data-name="Trazado 163" d="M527.194,932.4v-2.341h1.6V932.4Z" transform="translate(-360.949 -917.392)" fill="#fff"/>
    </g>
    <g id="Grupo_2" data-name="Grupo 2" transform="translate(442.782 871.322)">
      <rect id="Rectángulo_9" data-name="Rectángulo 9" width="59.547" height="14.39" fill="#ff464b"/>
      <path id="Trazado_39" data-name="Trazado 39" d="M624.114,923.212a3.238,3.238,0,0,1-1.93,1.746,9.184,9.184,0,0,1-3.106.678,11.6,11.6,0,0,1-2.873-.18,28.754,28.754,0,0,1-2.884-.664l1.415-2.831A6.754,6.754,0,0,0,618.165,923a2.8,2.8,0,0,0,.983-.222s.473-.484-.166-.678a3.267,3.267,0,0,0-1.262-.194,7.775,7.775,0,0,1-2.87-.844,2.187,2.187,0,0,1-1.06-1.884s-.137-2.12,2.65-3.035a9.311,9.311,0,0,1,3.828-.515,10.561,10.561,0,0,1,3.618.819l-1.37,2.562a8.419,8.419,0,0,0-2.276-.735c-.1,0-1.5-.1-1.523.4,0,0-.208.417.515.47a15.7,15.7,0,0,1,2.66.46,4.17,4.17,0,0,1,2.081,1.232,2.315,2.315,0,0,1,.138,2.353" transform="translate(-567.681 -913.426)" fill="#fff"/>
      <path id="Trazado_40" data-name="Trazado 40" d="M604.851,925.7h-5v-6.553h-2.7v-3.217h10.4v3.217h-2.7Z" transform="translate(-561.846 -913.544)" fill="#fff"/>
      <path id="Trazado_41" data-name="Trazado 41" d="M583.853,925.706l-.706-5.4-2.2,5.4h-2.924l-2.12-5.361-.706,5.361h-4.854l2.162-9.754h5.121l1.835,5.083,1.936-5.083h4.923l2.333,9.754Z" transform="translate(-552.175 -913.553)" fill="#fff"/>
    </g>
  </g>
</svg>
