<svg xmlns="http://www.w3.org/2000/svg" width="170" height="54.662" viewBox="0 0 170 54.662">
  <g id="Grupo_123" data-name="Grupo 123" transform="translate(-267.123 -798.896)">
    <g id="Grupo_121" data-name="Grupo 121" transform="translate(267.123 798.896)">
      <rect id="Rectángulo_246" data-name="Rectángulo 246" width="2.607" height="2.743" transform="translate(149.558 39.878)" fill="#fff"/>
      <path id="Trazado_293" data-name="Trazado 293" d="M271.31,810.893h5.79v-3.58h-5.79V802.5h7.258V798.9H267.123v20.992h4.187Z" transform="translate(-267.123 -798.896)" fill="#fff"/>
      <path id="Trazado_294" data-name="Trazado 294" d="M314.552,816.35h-7.286v-5.726h6.27v-3.552h-6.27V802.49h6.919V798.9H303.05v20.992h11.5Z" transform="translate(-288.59 -798.896)" fill="#fff"/>
      <path id="Trazado_295" data-name="Trazado 295" d="M352.281,814.131l-1.047-1.68a4.73,4.73,0,0,0-2-1.935,6.183,6.183,0,0,0,3.081-2.068,5.787,5.787,0,0,0,1.1-3.518,6.132,6.132,0,0,0-1.116-3.758,4.808,4.808,0,0,0-2.657-1.889,14.014,14.014,0,0,0-3.446-.386h-7.078v20.992h4.216V811.26h.448a3.256,3.256,0,0,1,1.929.43,7.486,7.486,0,0,1,1.485,2.179l3.184,6.019h4.742Zm-4.007-6.993a5.189,5.189,0,0,1-3.122.7h-1.818v-5.288H345.5a5.123,5.123,0,0,1,2.766.592,2.164,2.164,0,0,1,.865,1.968A2.427,2.427,0,0,1,348.274,807.138Z" transform="translate(-310.141 -798.896)" fill="#fff"/>
      <path id="Trazado_296" data-name="Trazado 296" d="M399.294,819.888l-2.841-5.757-1.046-1.68a4.732,4.732,0,0,0-2-1.935,6.18,6.18,0,0,0,3.081-2.068,5.785,5.785,0,0,0,1.1-3.518,6.132,6.132,0,0,0-1.116-3.758,4.809,4.809,0,0,0-2.658-1.889,14.013,14.013,0,0,0-3.446-.386h-7.078v20.992h4.216V811.26h.448a3.257,3.257,0,0,1,1.929.43,7.478,7.478,0,0,1,1.484,2.179l3.184,6.019Zm-6.848-12.75a5.187,5.187,0,0,1-3.122.7h-1.818v-5.288h2.165a5.124,5.124,0,0,1,2.766.592,2.164,2.164,0,0,1,.865,1.968A2.427,2.427,0,0,1,392.446,807.138Z" transform="translate(-336.536 -798.896)" fill="#fff"/>
      <path id="Trazado_297" data-name="Trazado 297" d="M438.825,816.35h-7.286v-5.726h6.27v-3.552h-6.27V802.49h6.919V798.9H427.323v20.992h11.5Z" transform="translate(-362.846 -798.896)" fill="#fff"/>
      <path id="Trazado_298" data-name="Trazado 298" d="M459.426,802.42h4.787v17.468h4.173V802.42h4.787V798.9H459.426Z" transform="translate(-382.028 -798.896)" fill="#fff"/>
      <path id="Trazado_299" data-name="Trazado 299" d="M510.68,816.35h-7.286v-5.726h6.27v-3.552h-6.27V802.49h6.919V798.9H499.178v20.992h11.5Z" transform="translate(-405.781 -798.896)" fill="#fff"/>
      <path id="Trazado_300" data-name="Trazado 300" d="M539.461,811.26h.448a3.257,3.257,0,0,1,1.929.43,7.467,7.467,0,0,1,1.484,2.179l3.184,6.019h4.742l-2.84-5.757-1.047-1.68a4.729,4.729,0,0,0-2-1.935,6.181,6.181,0,0,0,3.081-2.068,5.788,5.788,0,0,0,1.1-3.518,6.129,6.129,0,0,0-1.117-3.758,4.806,4.806,0,0,0-2.657-1.889,14.019,14.019,0,0,0-3.446-.386h-7.079v20.992h4.216Zm0-8.713h2.165a5.124,5.124,0,0,1,2.766.592,2.164,2.164,0,0,1,.864,1.968,2.427,2.427,0,0,1-.856,2.031,5.187,5.187,0,0,1-3.122.7h-1.818Z" transform="translate(-427.332 -798.896)" fill="#fff"/>
      <rect id="Rectángulo_247" data-name="Rectángulo 247" width="4.258" height="20.992" transform="translate(125.678 0)" fill="#fff"/>
      <path id="Trazado_301" data-name="Trazado 301" d="M600.215,798.9l-6.021,20.992h4.374l.97-4.1H605.3l.951,4.1h4.4L604.705,798.9Zm.2,13.217,2.038-8.6,1.994,8.6Z" transform="translate(-462.555 -798.896)" fill="#fff"/>
      <path id="Trazado_302" data-name="Trazado 302" d="M276.073,863.609h-4.965v-7.589h-3.985v19.53h3.985v-8.492h4.965v8.492h3.985v-19.53h-3.985Z" transform="translate(-267.123 -833.029)" fill="#fff"/>
      <rect id="Rectángulo_248" data-name="Rectángulo 248" width="4.024" height="19.53" transform="translate(16.474 22.991)" fill="#fff"/>
      <path id="Trazado_303" data-name="Trazado 303" d="M332.314,867.984h2.865v2.936a5.008,5.008,0,0,1-1.3.752,4.016,4.016,0,0,1-1.449.27,3,3,0,0,1-1.794-.6,3.059,3.059,0,0,1-1.112-1.856,22.357,22.357,0,0,1-.308-4.481,18.831,18.831,0,0,1,.27-3.667,3.647,3.647,0,0,1,1-1.932,2.487,2.487,0,0,1,1.8-.692c1.384,0,2.231.972,2.591,2.972l.031.176,3.96-.843-.024-.162a6.773,6.773,0,0,0-2.022-4.354,6.583,6.583,0,0,0-4.321-1.3,7.826,7.826,0,0,0-3.148.59,6.531,6.531,0,0,0-2.472,2.021,7.478,7.478,0,0,0-1.459,3.348,26.027,26.027,0,0,0-.336,4.473c0,3.357.622,5.845,1.848,7.4a6.355,6.355,0,0,0,5.268,2.356,12.163,12.163,0,0,0,3.3-.445,11.348,11.348,0,0,0,3.587-1.958l.069-.052V864.6h-6.851Z" transform="translate(-301.76 -832.542)" fill="#fff"/>
      <path id="Trazado_304" data-name="Trazado 304" d="M376.645,868.45a8.871,8.871,0,0,1-.234,2.422,2.1,2.1,0,0,1-.767,1.1,2.493,2.493,0,0,1-1.482.392,2.347,2.347,0,0,1-1.557-.5,2.254,2.254,0,0,1-.766-1.322,11.913,11.913,0,0,1-.173-2.258V856.019h-3.985v11.937a12.331,12.331,0,0,0,.742,4.854,4.683,4.683,0,0,0,2.188,2.367,8.536,8.536,0,0,0,3.734.7,7.1,7.1,0,0,0,3.675-.862,4.733,4.733,0,0,0,2.049-2.477,11.249,11.249,0,0,0,.586-3.875V856.019h-4.011Z" transform="translate(-327.208 -833.028)" fill="#fff"/>
      <path id="Trazado_305" data-name="Trazado 305" d="M412.534,866.965h5.81V863.6h-5.81v-4.167h6.412v-3.409h-10.4v19.53h10.737v-3.357h-6.752Z" transform="translate(-351.628 -833.029)" fill="#fff"/>
      <path id="Trazado_306" data-name="Trazado 306" d="M453.271,868.6a4.519,4.519,0,0,0-1.783-1.766,5.708,5.708,0,0,0,2.782-1.9,5.4,5.4,0,0,0,1.029-3.283,5.723,5.723,0,0,0-1.042-3.506,4.5,4.5,0,0,0-2.484-1.765,13.038,13.038,0,0,0-3.2-.359h-6.6v19.53h3.985v-7.995h.376a2.986,2.986,0,0,1,1.764.389,6.918,6.918,0,0,1,1.365,2.007l2.961,5.6H456.9l-2.662-5.4Zm-2.8-4.933a4.775,4.775,0,0,1-2.868.637h-1.645V859.48h1.967a4.714,4.714,0,0,1,2.541.542,1.969,1.969,0,0,1,.784,1.79A2.211,2.211,0,0,1,450.469,863.665Z" transform="translate(-371.598 -833.028)" fill="#fff"/>
      <rect id="Rectángulo_249" data-name="Rectángulo 249" width="4.024" height="19.53" transform="translate(86.834 22.991)" fill="#fff"/>
      <path id="Trazado_307" data-name="Trazado 307" d="M505.55,856.019h-3.985v19.53h11.287v-3.4h-7.3Z" transform="translate(-407.207 -833.029)" fill="#fff"/>
      <path id="Trazado_308" data-name="Trazado 308" d="M538.842,856.019h-3.985v19.53h11.286v-3.4h-7.3Z" transform="translate(-427.1 -833.029)" fill="#fff"/>
      <path id="Trazado_309" data-name="Trazado 309" d="M568.749,856.019l-5.6,19.53h4.136l.9-3.795h5.272l.881,3.795H578.5l-5.529-19.53Zm.261,12.248,1.838-7.755,1.8,7.755Z" transform="translate(-444.004 -833.028)" fill="#fff"/>
      <path id="Trazado_310" data-name="Trazado 310" d="M610.85,863.3a8.918,8.918,0,0,1-2.817-1.742,2.1,2.1,0,0,1-.5-1.306,1.559,1.559,0,0,1,.512-1.232,1.845,1.845,0,0,1,1.291-.466c1.225,0,1.921.908,2.13,2.776l.018.163,3.977-.229-.011-.175a7.122,7.122,0,0,0-1.529-4.357,5.459,5.459,0,0,0-4.271-1.524,7.136,7.136,0,0,0-3.111.613,5.407,5.407,0,0,0-2.1,1.811,5.078,5.078,0,0,0-.836,2.959,5.539,5.539,0,0,0,.877,3.023,8.358,8.358,0,0,0,3.661,2.657,11.349,11.349,0,0,1,3.328,1.929,2.324,2.324,0,0,1-.012,3.073,2.176,2.176,0,0,1-1.739.672,2.206,2.206,0,0,1-1.785-.758,5.1,5.1,0,0,1-.815-2.837l-.013-.176-4.016.358.005.164c.142,4.444,2.318,6.7,6.467,6.7a6.452,6.452,0,0,0,4.688-1.672,5.741,5.741,0,0,0,1.714-4.273,5.174,5.174,0,0,0-1.221-3.517A12.126,12.126,0,0,0,610.85,863.3Z" transform="translate(-467.868 -832.542)" fill="#fff"/>
      <path id="Trazado_311" data-name="Trazado 311" d="M651.678,879.476c-.168,1.781-.734,2.684-1.685,2.684a1.349,1.349,0,0,1-.993-.427,2.451,2.451,0,0,1-.6-1.3,17.769,17.769,0,0,1-.17-2.947,14.2,14.2,0,0,1,.2-2.948,2.307,2.307,0,0,1,.592-1.13,1.335,1.335,0,0,1,.956-.362c.844,0,1.345.7,1.531,2.134l.017.13,2.781-.616-.022-.115a5.24,5.24,0,0,0-1.448-3.042,4.136,4.136,0,0,0-2.822-.928,4.108,4.108,0,0,0-4.218,3.166,15.516,15.516,0,0,0-.408,3.989,9.206,9.206,0,0,0,1.154,5.1,3.959,3.959,0,0,0,3.5,1.73c2.494,0,3.959-1.441,4.353-4.284l.014-.1-2.714-.885Z" transform="translate(-493.143 -841.746)" fill="#fff"/>
      <path id="Trazado_312" data-name="Trazado 312" d="M672.838,882.351V871.173h-2.761V884.7h7.82v-2.353Z" transform="translate(-507.897 -842.083)" fill="#fff"/>
    </g>
    <g id="Grupo_19" data-name="Grupo 19" transform="translate(267.123 843.711)">
      <path id="Trazado_143" data-name="Trazado 143" d="M267.123,919.6l1.032-.147a2.234,2.234,0,0,0,.378,1.118,1.051,1.051,0,0,0,1.483.095c.02-.018.039-.036.058-.056a1.131,1.131,0,0,0,.261-.742.92.92,0,0,0-.11-.464.9.9,0,0,0-.382-.332q-.187-.094-.849-.336a2.57,2.57,0,0,1-1.2-.76,2.476,2.476,0,0,1-.483-1.547,2.671,2.671,0,0,1,.227-1.1,1.709,1.709,0,0,1,.656-.779,1.915,1.915,0,0,1,1.034-.267,1.781,1.781,0,0,1,1.49.634,2.775,2.775,0,0,1,.522,1.694l-1.061.068a1.587,1.587,0,0,0-.292-.852.839.839,0,0,0-.672-.261.947.947,0,0,0-.724.278.668.668,0,0,0-.168.478.716.716,0,0,0,.158.467,2.343,2.343,0,0,0,.975.514,4.165,4.165,0,0,1,1.145.553,1.9,1.9,0,0,1,.581.784,3.15,3.15,0,0,1,.21,1.225,3.071,3.071,0,0,1-.251,1.238,1.818,1.818,0,0,1-.71.857,2.158,2.158,0,0,1-1.144.281,1.837,1.837,0,0,1-1.531-.675A3.585,3.585,0,0,1,267.123,919.6Z" transform="translate(-267.123 -912.656)" fill="#fff"/>
      <path id="Trazado_144" data-name="Trazado 144" d="M283.9,922.295h-1.154l-.459-1.742h-2.1l-.435,1.742h-1.126l2.047-7.69h1.122Zm-1.953-3.042-.724-2.854-.71,2.854Z" transform="translate(-273.995 -912.85)" fill="#fff"/>
      <path id="Trazado_145" data-name="Trazado 145" d="M293.156,922.295V914.6h1.032l2.151,5.136V914.6h.986v7.69h-1.065l-2.119-5.014v5.014Z" transform="translate(-282.678 -912.85)" fill="#fff"/>
      <path id="Trazado_146" data-name="Trazado 146" d="M309.383,919.282l1.029.477a3.828,3.828,0,0,1-.784,1.87,1.8,1.8,0,0,1-1.394.61,1.994,1.994,0,0,1-1.721-1.045,5.247,5.247,0,0,1-.673-2.862,5.536,5.536,0,0,1,.677-2.982,2.04,2.04,0,0,1,1.781-1.062,1.85,1.85,0,0,1,1.568.834,3.578,3.578,0,0,1,.537,1.416l-1.05.368a1.864,1.864,0,0,0-.388-.945.912.912,0,0,0-.719-.348,1.079,1.079,0,0,0-.948.61,4.081,4.081,0,0,0-.364,1.988,4.4,4.4,0,0,0,.358,2.077,1.062,1.062,0,0,0,.932.619.9.9,0,0,0,.727-.394A2.754,2.754,0,0,0,309.383,919.282Z" transform="translate(-290.252 -912.661)" fill="#fff"/>
      <path id="Trazado_147" data-name="Trazado 147" d="M319.482,922.295V914.6h1.061v3.027h2.079V914.6h1.061v7.69h-1.061v-3.363h-2.079v3.363Z" transform="translate(-298.409 -912.85)" fill="#fff"/>
      <path id="Trazado_148" data-name="Trazado 148" d="M332.646,922.295V914.6h3.9v1.3h-2.837v1.7h2.638v1.3h-2.638V921h2.936v1.3Z" transform="translate(-306.274 -912.85)" fill="#fff"/>
      <path id="Trazado_149" data-name="Trazado 149" d="M343.681,922.305v-1.394l2.76-4.988h-2.448v-1.3h3.846v1.207l-2.874,5.188h2.99v1.288Z" transform="translate(-312.868 -912.861)" fill="#fff"/>
      <path id="Trazado_150" data-name="Trazado 150" d="M361.263,922.295v-3.236l-1.925-4.453h1.242l1.237,3.042,1.212-3.042h1.22l-1.926,4.467v3.223Z" transform="translate(-322.224 -912.85)" fill="#fff"/>
      <path id="Trazado_151" data-name="Trazado 151" d="M380.676,919.282l1.029.477a3.824,3.824,0,0,1-.784,1.87,1.8,1.8,0,0,1-1.394.61,2,2,0,0,1-1.721-1.045,5.244,5.244,0,0,1-.674-2.862,5.536,5.536,0,0,1,.678-2.982,2.04,2.04,0,0,1,1.781-1.062,1.849,1.849,0,0,1,1.568.834,3.578,3.578,0,0,1,.538,1.416l-1.051.368a1.864,1.864,0,0,0-.388-.945.912.912,0,0,0-.719-.348,1.079,1.079,0,0,0-.948.61,4.071,4.071,0,0,0-.364,1.988,4.4,4.4,0,0,0,.358,2.077,1.062,1.062,0,0,0,.932.619.9.9,0,0,0,.727-.394A2.749,2.749,0,0,0,380.676,919.282Z" transform="translate(-332.851 -912.661)" fill="#fff"/>
      <path id="Trazado_152" data-name="Trazado 152" d="M390.222,918.306a6.924,6.924,0,0,1,.241-1.972,4.008,4.008,0,0,1,.489-1.054,2.246,2.246,0,0,1,.679-.7,2.107,2.107,0,0,1,1.133-.3,2.133,2.133,0,0,1,1.859,1.054,6.5,6.5,0,0,1,.005,5.846,2.168,2.168,0,0,1-3.714.005A5.181,5.181,0,0,1,390.222,918.306Zm1.094-.052a3.846,3.846,0,0,0,.412,1.98,1.147,1.147,0,0,0,2.091.005,3.941,3.941,0,0,0,.407-2,3.879,3.879,0,0,0-.4-1.973,1.178,1.178,0,0,0-2.11.008A3.886,3.886,0,0,0,391.315,918.253Z" transform="translate(-340.673 -912.654)" fill="#fff"/>
      <path id="Trazado_153" data-name="Trazado 153" d="M404.919,922.295V914.6h1.588l.953,5.245.942-5.245h1.592v7.69h-.986v-6.053l-1.046,6.053h-1.022l-1.04-6.053v6.053Z" transform="translate(-349.459 -912.85)" fill="#fff"/>
      <path id="Trazado_154" data-name="Trazado 154" d="M420.15,922.284v-7.69h1.7a4.268,4.268,0,0,1,1.262.115,1.5,1.5,0,0,1,.756.753,3.21,3.21,0,0,1,.3,1.5,3.5,3.5,0,0,1-.174,1.191,2.085,2.085,0,0,1-.446.758,1.367,1.367,0,0,1-.551.364,4.16,4.16,0,0,1-1.1.111h-.692v2.9Zm1.061-6.389v2.178h.581a1.928,1.928,0,0,0,.839-.12.815.815,0,0,0,.332-.378,1.406,1.406,0,0,0,.12-.6,1.3,1.3,0,0,0-.168-.7.72.72,0,0,0-.427-.341,3.543,3.543,0,0,0-.763-.052Z" transform="translate(-358.56 -912.839)" fill="#fff"/>
      <path id="Trazado_155" data-name="Trazado 155" d="M434.9,922.295h-1.154l-.459-1.742h-2.1l-.435,1.742H429.63l2.046-7.69H432.8Zm-1.953-3.042-.724-2.854-.709,2.854Z" transform="translate(-364.225 -912.85)" fill="#fff"/>
      <path id="Trazado_156" data-name="Trazado 156" d="M444.16,919.693V912h1.032l2.151,5.135V912h.986v7.69h-1.065l-2.119-5.014v5.014Zm1.319-8.115h-.459v-.189a1.629,1.629,0,0,1,.183-.847.54.54,0,0,1,.469-.3.662.662,0,0,1,.234.039,2.471,2.471,0,0,1,.392.226.921.921,0,0,0,.446.186.23.23,0,0,0,.192-.1.722.722,0,0,0,.1-.349h.466a2.139,2.139,0,0,1-.181,1.012.523.523,0,0,1-.457.3.8.8,0,0,1-.24-.037,4.575,4.575,0,0,1-.412-.215,1.181,1.181,0,0,0-.48-.184.2.2,0,0,0-.18.1.722.722,0,0,0-.07.351Z" transform="translate(-372.907 -910.244)" fill="#fff"/>
      <path id="Trazado_157" data-name="Trazado 157" d="M457.224,922.295V914.6h1.061v7.69Z" transform="translate(-380.713 -912.85)" fill="#fff"/>
      <path id="Trazado_158" data-name="Trazado 158" d="M466.317,922.295h-1.154l-.459-1.742h-2.1l-.435,1.742h-1.126l2.047-7.69h1.122Zm-1.953-3.042-.724-2.854-.71,2.854Z" transform="translate(-382.994 -912.85)" fill="#fff"/>
      <path id="Trazado_159" data-name="Trazado 159" d="M480,922.4V914.77h1.061V921.1H483.7v1.3Z" transform="translate(-394.322 -912.948)" fill="#fff"/>
      <path id="Trazado_160" data-name="Trazado 160" d="M490.35,922.3v-6.385h-1.559v-1.3h4.176v1.3h-1.556V922.3Z" transform="translate(-399.575 -912.855)" fill="#fff"/>
      <path id="Trazado_161" data-name="Trazado 161" d="M500.864,914.61H502.8a2.649,2.649,0,0,1,1,.147,1.8,1.8,0,0,1,.792.708,3.916,3.916,0,0,1,.5,1.246,8.166,8.166,0,0,1,.174,1.818,7.241,7.241,0,0,1-.161,1.637,3.891,3.891,0,0,1-.563,1.359,1.846,1.846,0,0,1-.746.61,2.262,2.262,0,0,1-.939.162h-2Zm1.061,1.3V921h.792a1.994,1.994,0,0,0,.642-.073.924.924,0,0,0,.428-.32,1.922,1.922,0,0,0,.278-.742,7.248,7.248,0,0,0,.108-1.409,6.618,6.618,0,0,0-.108-1.37,2.034,2.034,0,0,0-.3-.745.951.951,0,0,0-.491-.361,3.3,3.3,0,0,0-.871-.073Z" transform="translate(-406.788 -912.851)" fill="#fff"/>
      <path id="Trazado_162" data-name="Trazado 162" d="M517.982,922.295h-1.154l-.459-1.742h-2.1l-.435,1.742h-1.125l2.046-7.69h1.122Zm-1.953-3.042-.724-2.854-.71,2.854Z" transform="translate(-413.866 -912.85)" fill="#fff"/>
      <path id="Trazado_163" data-name="Trazado 163" d="M527.194,931.531v-1.474H528.2v1.474Z" transform="translate(-422.521 -922.083)" fill="#fff"/>
    </g>
    <g id="Grupo_2" data-name="Grupo 2" transform="translate(377.723 844.498)">
      <rect id="Rectángulo_9" data-name="Rectángulo 9" width="37.493" height="9.061" fill="#ff464b"/>
      <path id="Trazado_39" data-name="Trazado 39" d="M620.117,920.393a2.039,2.039,0,0,1-1.215,1.1,5.785,5.785,0,0,1-1.956.427,7.306,7.306,0,0,1-1.809-.113,18.1,18.1,0,0,1-1.816-.418l.891-1.782a4.253,4.253,0,0,0,2.158.654,1.76,1.76,0,0,0,.619-.14s.3-.3-.1-.427a2.056,2.056,0,0,0-.794-.122,4.895,4.895,0,0,1-1.807-.531,1.377,1.377,0,0,1-.667-1.186s-.087-1.335,1.669-1.911a5.863,5.863,0,0,1,2.41-.324,6.648,6.648,0,0,1,2.278.516l-.863,1.613a5.3,5.3,0,0,0-1.433-.463c-.06,0-.941-.062-.959.254,0,0-.131.263.324.3a9.887,9.887,0,0,1,1.675.289,2.625,2.625,0,0,1,1.31.776,1.457,1.457,0,0,1,.087,1.481" transform="translate(-584.585 -914.232)" fill="#fff"/>
      <path id="Trazado_40" data-name="Trazado 40" d="M602,922.079h-3.149v-4.126h-1.7v-2.025h6.546v2.025h-1.7Z" transform="translate(-574.92 -914.427)" fill="#fff"/>
      <path id="Trazado_41" data-name="Trazado 41" d="M578.849,922.093l-.445-3.4-1.384,3.4h-1.841l-1.335-3.376-.445,3.376h-3.056l1.362-6.141h3.224l1.155,3.2,1.219-3.2h3.1l1.469,6.141Z" transform="translate(-558.904 -914.441)" fill="#fff"/>
    </g>
  </g>
</svg>
